<?xml version="1.0" encoding="utf-8"?>
<!-- Generator: Adobe Illustrator 23.1.1, SVG Export Plug-In . SVG Version: 6.00 Build 0)  -->
<svg version="1.1" id="Layer_1" xmlns="http://www.w3.org/2000/svg" xmlns:xlink="http://www.w3.org/1999/xlink" x="0px" y="0px"
	 viewBox="0 0 576 118.4" style="enable-background:new 0 0 576 118.4;" xml:space="preserve">
<style type="text/css">
	.st0{fill:#FFFFFF;}
	.st1{fill:url(#SVGID_1_);}
	.st2{fill:#77CFE0;}
	.st3{enable-background:new    ;}
</style>
<g>
	<g>
		<g>
			<g>
				<g>
					<path class="st0" d="M66.1,97.1c-3.1,0-6.2-1.3-8.4-3.8l-33.5-38c-4.1-4.6-3.6-11.7,1-15.8s11.7-3.6,15.8,1l33.5,38
						c4.1,4.6,3.6,11.7-1,15.8C71.3,96.2,68.7,97.1,66.1,97.1z"/>
				</g>
			</g>
		</g>
		<g>
			
				<linearGradient id="SVGID_1_" gradientUnits="userSpaceOnUse" x1="62.6133" y1="64.8856" x2="173.3712" y2="64.8856" gradientTransform="matrix(1 0 0 -1 0 120)">
				<stop  offset="0" style="stop-color:#5363AD"/>
				<stop  offset="1" style="stop-color:#77CFE0"/>
			</linearGradient>
			<path class="st1" d="M107.3,96.1L107.3,96.1c-3.3,0-6.3-1.4-8.4-3.8l-33.5-38c-4.1-4.6-3.6-11.7,1-15.8s11.7-3.6,15.8,1
				l25.3,28.7L154,17.7c4.2-4.5,11.2-4.8,15.8-0.6c4.5,4.2,4.8,11.2,0.6,15.8l-54.9,59.6C113.4,94.7,110.4,96.1,107.3,96.1z"/>
		</g>
	</g>
	<g>
		<g>
			<circle class="st2" cx="162.2" cy="25.2" r="11"/>
		</g>
	</g>
</g>
<g>
	<g class="st3">
		<path class="st0" d="M247.2,71.1c0.8,3,0.9,5.6,1,5.6h0.1c0,0,0.2-2.6,0.9-5.6l8.7-36.5h9.9l-13.6,52.7h-11.1L235,56.2
			c-0.9-3.4-1.3-6.9-1.3-6.9h-0.1c0,0-0.4,3.5-1.3,6.9l-8.1,31.2H213l-13.2-52.7h9.9l8.3,36.5c0.7,3,0.9,5.6,0.9,5.6h0.1
			c0.1,0,0.1-2.5,1-5.6l9.5-36.5h8.3L247.2,71.1z"/>
		<path class="st0" d="M313.6,33.8c15.5,0,27.3,11.8,27.3,26.9c0,15.5-11.7,27.6-27.3,27.6c-15.5,0-27.3-12.1-27.3-27.6
			C286.4,45.6,298.1,33.8,313.6,33.8z M313.6,79.5c9.7,0,17.4-8,17.4-18.9c0-10.4-7.7-18.1-17.4-18.1s-17.4,7.7-17.4,18.1
			C296.3,71.5,304,79.5,313.6,79.5z"/>
		<path class="st0" d="M364.6,34.7h17c5.7,0,8.3,0.4,10.6,1.5c5.3,2.4,8.6,7.4,8.6,14.4c0,6.3-3.3,12.2-8.9,14.4v0.1
			c0,0,0.7,0.7,1.8,2.6l10.8,19.7h-10.7l-10.5-19.7h-9.2v19.7h-9.6V34.7z M382.8,59.4c5.1,0,8.3-3,8.3-8.3c0-5-2.2-8.2-9.7-8.2h-7.3
			v16.5H382.8z"/>
		<path class="st0" d="M427.4,34.7h9.6v21.5h6.8l12.4-21.5h10.4l-14.9,25.1v0.1l15.8,27.5h-10.8l-12.9-23H437v23h-9.6V34.7z"/>
		<path class="st0" d="M489.4,34.7h18c16.3,0,26.9,9.7,26.9,26.3c0,16.6-10.6,26.4-26.9,26.4h-18V34.7z M506.9,79.2
			c10.7,0,17.5-6.3,17.5-18.2c0-11.7-7-18-17.5-18H499v36.2H506.9z"/>
	</g>
</g>
</svg>
